<?xml version="1.0" encoding="UTF-8"?>
<!DOCTYPE svg PUBLIC "-//W3C//DTD SVG 1.1//EN" "http://www.w3.org/Graphics/SVG/1.1/DTD/svg11.dtd">
<svg xmlns="http://www.w3.org/2000/svg" version="1.1" width="1111px" height="1076px" style="shape-rendering:geometricPrecision; text-rendering:geometricPrecision; image-rendering:optimizeQuality; fill-rule:evenodd; clip-rule:evenodd" xmlns:xlink="http://www.w3.org/1999/xlink">
<g><path style="opacity:0.994" fill="#060908" d="M 1110.5,876.5 C 1110.5,879.5 1110.5,882.5 1110.5,885.5C 1105.6,910.641 1094.76,932.974 1078,952.5C 1048.44,985.675 1012.28,1008.84 969.5,1022C 934.054,1033.35 897.721,1039.68 860.5,1041C 792.4,1042.95 725.067,1036.62 658.5,1022C 581.691,1007.4 508.024,983.396 437.5,950C 379.735,921.219 326.901,885.385 279,842.5C 279.447,850.192 280.447,857.859 282,865.5C 287.284,890.919 292.951,916.253 299,941.5C 302.521,957.317 304.688,973.317 305.5,989.5C 305.35,1027.46 287.683,1053.29 252.5,1067C 241.27,1070.81 229.937,1073.64 218.5,1075.5C 209.167,1075.5 199.833,1075.5 190.5,1075.5C 160.265,1070.72 133.932,1057.88 111.5,1037C 82.0648,1006.67 59.2314,971.833 43,932.5C 17.6395,872.724 3.47287,810.39 0.5,745.5C 1.02547,672.066 32.6921,617.066 95.5,580.5C 49.6114,470.503 32.1114,356.169 43,237.5C 49.9602,173.606 70.9602,114.94 106,61.5C 120.619,41.5484 138.452,25.0484 159.5,12C 197.236,-6.20507 232.903,-2.87174 266.5,22C 285.491,37.826 301.324,56.326 314,77.5C 337.469,119.45 355.136,163.784 367,210.5C 381.612,282.673 405.945,351.339 440,416.5C 447.123,429.249 454.623,441.749 462.5,454C 590.14,412.937 694.973,445.104 777,550.5C 820.122,609.674 844.622,676.007 850.5,749.5C 895.073,761.977 939.74,774.144 984.5,786C 1017.59,794.716 1048.59,808.05 1077.5,826C 1095.66,838.293 1106.66,855.127 1110.5,876.5 Z"/></g>
<g><path style="opacity:1" fill="#e2b77c" d="M 213.5,25.5 C 209.525,31.1486 205.525,36.8152 201.5,42.5C 180.333,74.4499 164.833,109.117 155,146.5C 138.893,211.704 134.893,277.704 143,344.5C 151.461,415.012 169.294,483.012 196.5,548.5C 169.704,552.99 143.871,560.656 119,571.5C 80.1065,477.699 61.7732,380.032 64,278.5C 66.5917,228.472 76.925,180.139 95,133.5C 108.141,100.043 127.641,70.8761 153.5,46C 166.326,35.2548 180.992,28.2548 197.5,25C 202.885,24.2665 208.218,24.4332 213.5,25.5 Z"/></g>
<g><path style="opacity:1" fill="#fdfdfd" d="M 213.5,25.5 C 230.167,28.6673 244.834,35.834 257.5,47C 281.145,70.0044 299.312,96.8378 312,127.5C 320.246,146.479 327.579,165.813 334,185.5C 343.642,220.733 352.975,256.067 362,291.5C 384.754,368.838 419.588,440.004 466.5,505C 459.659,510.987 454.659,518.154 451.5,526.5C 405.358,462.211 370.858,391.878 348,315.5C 341.02,289.581 334.353,263.581 328,237.5C 317.128,196.423 301.794,157.09 282,119.5C 270.852,99.3439 257.019,81.1772 240.5,65C 229.098,54.7719 216.098,47.2719 201.5,42.5C 205.525,36.8152 209.525,31.1486 213.5,25.5 Z"/></g>
<g><path style="opacity:1" fill="#f2e6b1" d="M 201.5,42.5 C 216.098,47.2719 229.098,54.7719 240.5,65C 257.019,81.1772 270.852,99.3439 282,119.5C 301.794,157.09 317.128,196.423 328,237.5C 334.353,263.581 341.02,289.581 348,315.5C 370.858,391.878 405.358,462.211 451.5,526.5C 450.773,533.8 450.273,541.133 450,548.5C 416.196,536.44 381.696,534.273 346.5,542C 336.992,543.877 327.658,546.377 318.5,549.5C 288.758,543.921 258.758,542.088 228.5,544C 217.695,544.85 207.028,546.35 196.5,548.5C 169.294,483.012 151.461,415.012 143,344.5C 134.893,277.704 138.893,211.704 155,146.5C 164.833,109.117 180.333,74.4499 201.5,42.5 Z"/></g>
<g><path style="opacity:1" fill="#fafafa" d="M 543.5,461.5 C 607.654,457.718 663.988,476.551 712.5,518C 755.791,556.282 786.624,602.782 805,657.5C 783.895,606.082 752.395,562.249 710.5,526C 660.948,488.117 605.614,476.117 544.5,490C 528.471,494.233 512.804,499.233 497.5,505C 490.257,495.846 483.257,486.512 476.5,477C 498.335,469.211 520.668,464.045 543.5,461.5 Z"/></g>
<g><path style="opacity:1" fill="#f7b232" d="M 580.5,509.5 C 618.984,518.128 651.484,537.128 678,566.5C 714.974,609.756 742.141,658.756 759.5,713.5C 664.98,668.801 583.48,606.801 515,527.5C 514.383,526.551 514.549,525.718 515.5,525C 536.366,516.412 558.032,511.246 580.5,509.5 Z"/></g>
<g><path style="opacity:1" fill="#fdf001" d="M 580.5,509.5 C 622.017,507.041 659.35,518.208 692.5,543C 726.901,571.645 753.734,606.145 773,646.5C 786.862,674.756 798.362,703.922 807.5,734C 790.943,728.557 774.943,721.723 759.5,713.5C 742.141,658.756 714.974,609.756 678,566.5C 651.484,537.128 618.984,518.128 580.5,509.5 Z"/></g>
<g><path style="opacity:1" fill="#fdfdfc" d="M 1066.5,888.5 C 1062.6,880.078 1056.93,872.911 1049.5,867C 1036.49,857.335 1022.49,849.335 1007.5,843C 989.726,836.075 971.726,829.742 953.5,824C 904.307,811.451 855.307,798.118 806.5,784C 682.364,740.145 576.364,669.645 488.5,572.5C 481.865,563.894 477.365,554.227 475,543.5C 473.428,536.551 475.261,530.718 480.5,526C 481.167,525.333 481.833,525.333 482.5,526C 562.811,625.293 661.811,699.96 779.5,750C 807.115,761.971 835.448,771.971 864.5,780C 902.297,789.532 939.963,799.532 977.5,810C 1005.13,817.655 1031.46,828.321 1056.5,842C 1069.14,848.637 1078.31,858.47 1084,871.5C 1085.29,875.73 1085.79,880.064 1085.5,884.5C 1079.26,886.247 1072.92,887.58 1066.5,888.5 Z"/></g>
<g><path style="opacity:1" fill="#fef101" d="M 488.5,572.5 C 576.364,669.645 682.364,740.145 806.5,784C 855.307,798.118 904.307,811.451 953.5,824C 971.726,829.742 989.726,836.075 1007.5,843C 1022.49,849.335 1036.49,857.335 1049.5,867C 1056.93,872.911 1062.6,880.078 1066.5,888.5C 910.165,915.944 762.832,890.778 624.5,813C 575.816,784.983 530.483,752.316 488.5,715C 468.695,696.195 449.195,677.029 430,657.5C 411.959,637.128 394.292,616.461 377,595.5C 380.69,582.569 377.19,572.069 366.5,564C 394.712,560.14 422.045,563.474 448.5,574C 456.493,577.325 463.826,581.659 470.5,587C 482.473,589.519 488.473,584.686 488.5,572.5 Z"/></g>
<g><path style="opacity:1" fill="#fdfdfc" d="M 294.5,604.5 C 230.538,597.952 169.538,608.452 111.5,636C 85.3163,648.351 64.6497,666.851 49.5,691.5C 35.9512,713.714 27.9512,737.714 25.5,763.5C 20.2969,707.793 37.6302,660.627 77.5,622C 83.9717,616.264 90.9717,611.264 98.5,607C 163.606,572.649 232.606,560.649 305.5,571C 316.292,573.159 326.959,575.825 337.5,579C 322.479,586.504 308.145,595.004 294.5,604.5 Z"/></g>
<g><path style="opacity:1" fill="#eed797" d="M 294.5,604.5 C 251.796,637.528 225.63,680.862 216,734.5C 208.739,783.19 210.739,831.523 222,879.5C 232.698,926.596 248.365,971.929 269,1015.5C 270.141,1017.61 271.641,1019.44 273.5,1021C 272.695,1022.11 272.028,1023.28 271.5,1024.5C 228.511,1041.34 189.511,1034.84 154.5,1005C 134.222,985.734 117.389,963.901 104,939.5C 66.1629,867.485 47.4963,790.819 48,709.5C 48.4658,704.274 49.2991,699.107 50.5,694C 50.472,692.93 50.1386,692.097 49.5,691.5C 64.6497,666.851 85.3163,648.351 111.5,636C 169.538,608.452 230.538,597.952 294.5,604.5 Z"/></g>
<g><path style="opacity:1" fill="#fcef04" d="M 282.5,983.5 C 282.806,986.385 282.473,989.052 281.5,991.5C 255.817,933.767 239.983,873.433 234,810.5C 229.718,764.187 237.718,720.187 258,678.5C 277.566,644.927 304.733,619.76 339.5,603C 260.56,684.238 235.394,780.071 264,890.5C 269.489,913.455 274.822,936.455 280,959.5C 281.632,967.422 282.465,975.422 282.5,983.5 Z"/></g>
<g><path style="opacity:1" fill="#fef101" d="M 1070.5,913.5 C 1070.55,915.903 1070.22,918.236 1069.5,920.5C 1062.97,932.507 1054.31,942.841 1043.5,951.5C 894.745,970.512 753.411,946.346 619.5,879C 507.554,820.907 412.221,742.407 333.5,643.5C 341.753,633.074 350.587,623.074 360,613.5C 430.428,703.96 514.928,777.793 613.5,835C 756.525,915.002 908.858,941.169 1070.5,913.5 Z"/></g>
<g><path style="opacity:1" fill="#f7b232" d="M 333.5,643.5 C 412.221,742.407 507.554,820.907 619.5,879C 753.411,946.346 894.745,970.512 1043.5,951.5C 1019.38,973.702 991.377,989.535 959.5,999C 916.889,1011.26 873.389,1017.1 829,1016.5C 721.641,1012.96 617.475,993.127 516.5,957C 425.583,922.988 345.416,872.488 276,805.5C 274.854,744.094 294.021,690.094 333.5,643.5 Z"/></g>
<g><path style="opacity:1" fill="#e2b77d" d="M 49.5,691.5 C 50.1386,692.097 50.472,692.93 50.5,694C 49.2991,699.107 48.4658,704.274 48,709.5C 47.4963,790.819 66.1629,867.485 104,939.5C 117.389,963.901 134.222,985.734 154.5,1005C 189.511,1034.84 228.511,1041.34 271.5,1024.5C 262.856,1035.16 251.856,1042.33 238.5,1046C 198.352,1057.71 162.685,1049.71 131.5,1022C 104.622,996.1 83.7882,965.933 69,931.5C 45.4274,877.877 30.9274,821.877 25.5,763.5C 27.9512,737.714 35.9512,713.714 49.5,691.5 Z"/></g>
<g><path style="opacity:1" fill="#edece6" d="M 1069.5,920.5 C 1070.22,918.236 1070.55,915.903 1070.5,913.5C 1071.86,912.374 1073.19,912.374 1074.5,913.5C 1073.16,916.154 1071.5,918.487 1069.5,920.5 Z"/></g>
<g><path style="opacity:1" fill="#9f932e" d="M 282.5,983.5 C 283.643,986.976 283.81,990.642 283,994.5C 282.487,993.473 281.987,992.473 281.5,991.5C 282.473,989.052 282.806,986.385 282.5,983.5 Z"/></g>
</svg>
