<?xml version="1.0" standalone="no"?>
<!DOCTYPE svg PUBLIC "-//W3C//DTD SVG 20010904//EN"
 "http://www.w3.org/TR/2001/REC-SVG-20010904/DTD/svg10.dtd">
<svg version="1.0" xmlns="http://www.w3.org/2000/svg"
 width="1111.000000pt" height="1076.000000pt" viewBox="0 0 1111.000000 1076.000000"
 preserveAspectRatio="xMidYMid meet">

<g transform="translate(0.000000,1076.000000) scale(0.100000,-0.100000)"
fill="#000000" stroke="none">
<path d="M1920 10739 c-249 -38 -529 -214 -740 -466 -281 -336 -498 -793 -635
-1337 -214 -851 -187 -1889 76 -2939 77 -305 189 -659 288 -904 12 -29 30 -75
41 -103 l20 -50 -58 -29 c-275 -139 -552 -434 -708 -756 -138 -286 -192 -565
-181 -940 19 -616 218 -1386 517 -1990 166 -338 326 -571 530 -775 240 -240
482 -375 771 -431 106 -20 347 -15 466 10 335 70 548 211 658 436 61 123 76
186 82 347 8 201 -16 361 -117 788 -23 96 -53 225 -66 285 -27 120 -85 448
-80 453 2 1 41 -30 87 -70 784 -683 1715 -1185 2769 -1493 234 -69 694 -182
955 -235 1598 -326 2815 -246 3635 240 131 77 279 185 379 276 201 183 384
455 462 689 30 90 34 278 7 365 -39 124 -145 261 -281 362 -284 210 -673 355
-1577 588 -173 45 -406 106 -517 137 l-201 56 -7 71 c-91 983 -536 1867 -1235
2455 -488 410 -1001 601 -1613 601 -259 0 -433 -21 -677 -80 -94 -23 -272 -76
-327 -97 -33 -13 -341 553 -495 912 -169 389 -288 758 -412 1265 -118 489
-232 839 -385 1185 -287 646 -659 1049 -1068 1156 -92 24 -268 33 -363 18z
m295 -255 c307 -75 605 -387 854 -894 174 -353 296 -720 455 -1360 148 -598
305 -1036 551 -1535 153 -312 339 -626 524 -889 l70 -99 -46 -51 c-25 -28 -60
-80 -77 -116 -26 -56 -31 -79 -34 -167 l-4 -101 -69 23 c-190 65 -457 94 -686
76 -159 -12 -355 -48 -476 -85 l-79 -24 -106 18 c-290 50 -716 53 -1022 7
-267 -41 -552 -116 -792 -210 l-86 -34 -55 141 c-417 1063 -581 2249 -446
3225 91 656 334 1285 646 1671 143 177 328 321 487 379 144 52 253 59 391 25z
m3663 -4355 c533 -57 988 -287 1417 -714 306 -305 555 -686 719 -1102 31 -78
56 -145 56 -148 0 -3 -52 97 -115 222 -328 652 -723 1092 -1194 1328 -525 262
-1104 259 -1762 -10 -16 -6 -54 39 -193 232 l-37 52 98 31 c168 52 386 95 573
113 83 9 349 6 438 -4z m334 -488 c547 -94 1028 -485 1408 -1146 81 -140 224
-435 285 -590 49 -123 175 -488 170 -493 -4 -4 -250 101 -425 183 -785 367
-1501 866 -2096 1460 -215 214 -410 433 -397 445 29 28 357 120 513 143 144
23 404 21 542 -2z m-1307 -238 c324 -397 742 -803 1170 -1134 557 -431 1212
-805 1887 -1077 334 -135 523 -194 1173 -362 215 -56 473 -125 575 -155 604
-176 945 -344 1074 -529 54 -78 65 -105 73 -176 l6 -59 -44 -11 c-71 -19 -284
-60 -424 -80 -321 -48 -431 -54 -885 -54 -465 0 -573 7 -939 59 -1094 159
-2174 617 -3122 1327 -342 256 -552 440 -910 797 -271 271 -448 467 -662 728
l-108 132 12 47 c21 82 -12 173 -85 235 l-30 27 79 7 c120 12 356 -1 467 -25
173 -36 331 -100 453 -183 93 -63 171 -52 210 30 22 46 15 77 -35 163 -97 163
-113 283 -49 364 11 14 24 26 28 26 3 0 42 -44 86 -97z m-1925 -348 c120 -19
312 -60 367 -79 l36 -12 -118 -63 c-643 -338 -1008 -865 -1121 -1623 -24 -166
-29 -531 -10 -738 47 -482 179 -1015 381 -1526 84 -210 181 -423 206 -450 19
-21 19 -21 -10 -60 -125 -173 -471 -289 -764 -257 -444 50 -841 396 -1162
1017 -234 451 -412 1026 -497 1606 -19 129 -22 198 -23 415 0 231 3 272 22
371 96 471 383 870 761 1055 397 194 771 307 1182 355 158 18 607 12 750 -11z
m325 -432 c-516 -578 -765 -1194 -765 -1892 0 -330 41 -608 177 -1181 71 -305
108 -507 117 -650 l6 -95 -21 45 c-49 108 -171 429 -223 585 -162 494 -242
918 -253 1346 -11 422 44 748 179 1053 115 263 325 524 559 700 79 58 301 196
308 191 1 -2 -36 -48 -84 -102z m425 -153 c358 -439 810 -897 1235 -1250 846
-703 1778 -1198 2769 -1470 405 -111 802 -180 1276 -222 193 -17 830 -17 1020
0 183 17 474 56 609 82 58 11 107 18 110 15 2 -3 -26 -51 -64 -108 -88 -130
-282 -327 -420 -424 -380 -268 -847 -421 -1480 -485 -194 -19 -762 -16 -1005
6 -941 84 -2012 331 -2780 641 -800 323 -1490 757 -2109 1325 l-134 124 6 150
c25 598 275 1157 748 1668 75 81 94 97 104 86 7 -7 59 -69 115 -138z"/>
</g>
</svg>
